<svg width="26" height="26" viewBox="0 0 26 26" fill="none" xmlns="http://www.w3.org/2000/svg">
<path d="M7.75195 20.4995C6.37695 20.4995 5.26445 21.6245 5.26445 22.9995C5.26445 24.3745 6.37695 25.4995 7.75195 25.4995C9.12696 25.4995 10.252 24.3745 10.252 22.9995C10.252 21.6245 9.12696 20.4995 7.75195 20.4995ZM0.251953 0.499512V2.99951H2.75195L7.25195 12.487L5.56445 15.5495C5.36445 15.8995 5.25195 16.312 5.25195 16.7495C5.25195 18.1245 6.37695 19.2495 7.75195 19.2495H22.752V16.7495H8.27695C8.10195 16.7495 7.96445 16.612 7.96445 16.437L8.00195 16.287L9.12696 14.2495H18.4395C19.377 14.2495 20.202 13.737 20.627 12.962L25.102 4.84951C25.202 4.67451 25.252 4.46201 25.252 4.24951C25.252 3.56201 24.6895 2.99951 24.002 2.99951H5.51445L4.33945 0.499512H0.251953ZM20.252 20.4995C18.877 20.4995 17.7645 21.6245 17.7645 22.9995C17.7645 24.3745 18.877 25.4995 20.252 25.4995C21.627 25.4995 22.752 24.3745 22.752 22.9995C22.752 21.6245 21.627 20.4995 20.252 20.4995Z" fill="#5E8DEA"/>
</svg>
