<svg width="24" height="26" viewBox="0 0 24 26" fill="none" xmlns="http://www.w3.org/2000/svg">
<path d="M20.75 2.75049H15.525C15 1.30049 13.625 0.250488 12 0.250488C10.375 0.250488 9 1.30049 8.475 2.75049H3.25C1.875 2.75049 0.75 3.87549 0.75 5.25049V22.7505C0.75 24.1255 1.875 25.2505 3.25 25.2505H20.75C22.125 25.2505 23.25 24.1255 23.25 22.7505V5.25049C23.25 3.87549 22.125 2.75049 20.75 2.75049ZM12 2.75049C12.6875 2.75049 13.25 3.31299 13.25 4.00049C13.25 4.68799 12.6875 5.25049 12 5.25049C11.3125 5.25049 10.75 4.68799 10.75 4.00049C10.75 3.31299 11.3125 2.75049 12 2.75049ZM9.5 20.2505L4.5 15.2505L6.2625 13.488L9.5 16.713L17.7375 8.47549L19.5 10.2505L9.5 20.2505Z" fill="#5E8DEA"/>
</svg>
