<svg width="26" height="26" viewBox="0 0 26 26" fill="none" xmlns="http://www.w3.org/2000/svg">
<path d="M12.998 11.6245C12.2355 11.6245 11.623 12.237 11.623 12.9995C11.623 13.762 12.2355 14.3745 12.998 14.3745C13.7605 14.3745 14.373 13.762 14.373 12.9995C14.373 12.237 13.7605 11.6245 12.998 11.6245ZM12.998 0.499512C6.09805 0.499512 0.498047 6.09951 0.498047 12.9995C0.498047 19.8995 6.09805 25.4995 12.998 25.4995C19.8981 25.4995 25.4981 19.8995 25.4981 12.9995C25.4981 6.09951 19.8981 0.499512 12.998 0.499512ZM15.7355 15.737L5.49805 20.4995L10.2605 10.262L20.4981 5.49951L15.7355 15.737Z" fill="#5E8DEA"/>
</svg>
