<svg width="24" height="24" viewBox="0 0 24 24" fill="none" xmlns="http://www.w3.org/2000/svg">
<path d="M20.9254 13.17C20.9704 12.795 21.0004 12.405 21.0004 12C21.0004 11.595 20.9704 11.205 20.9104 10.83L23.4454 8.85C23.6704 8.67 23.7304 8.34 23.5954 8.085L21.1954 3.93C21.0454 3.66 20.7304 3.57 20.4604 3.66L17.4754 4.86C16.8454 4.38 16.1854 3.99 15.4504 3.69L15.0004 0.51C14.9554 0.21 14.7004 0 14.4004 0H9.60038C9.30038 0 9.06038 0.21 9.01538 0.51L8.56538 3.69C7.83038 3.99 7.15538 4.395 6.54038 4.86L3.55538 3.66C3.28538 3.555 2.97038 3.66 2.82038 3.93L0.420377 8.085C0.270377 8.355 0.330378 8.67 0.570378 8.85L3.10538 10.83C3.04538 11.205 3.00038 11.61 3.00038 12C3.00038 12.39 3.03038 12.795 3.09038 13.17L0.555377 15.15C0.330377 15.33 0.270377 15.66 0.405377 15.915L2.80538 20.07C2.95538 20.34 3.27038 20.43 3.54038 20.34L6.52538 19.14C7.15538 19.62 7.81538 20.01 8.55038 20.31L9.00038 23.49C9.06038 23.79 9.30038 24 9.60038 24H14.4004C14.7004 24 14.9554 23.79 14.9854 23.49L15.4354 20.31C16.1704 20.01 16.8454 19.605 17.4604 19.14L20.4454 20.34C20.7154 20.445 21.0304 20.34 21.1804 20.07L23.5804 15.915C23.7304 15.645 23.6704 15.33 23.4304 15.15L20.9254 13.17ZM12.0004 16.5C9.52538 16.5 7.50038 14.475 7.50038 12C7.50038 9.525 9.52538 7.5 12.0004 7.5C14.4754 7.5 16.5004 9.525 16.5004 12C16.5004 14.475 14.4754 16.5 12.0004 16.5Z" fill="#5E8DEA"/>
</svg>
